<svg width="40" height="40" viewBox="0 0 40 40" fill="none" xmlns="http://www.w3.org/2000/svg">
<path d="M40 20.0007C40 30.102 32.5124 38.4529 22.7853 39.808C21.8758 39.9341 20.9452 40 20.0007 40C18.9104 40 17.8398 39.9131 16.7971 39.7449C7.27324 38.2118 0 29.9548 0 20.0007C0 8.95491 8.95491 0 19.9993 0C31.0437 0 40 8.95491 40 20.0007Z" fill="#1877F2"/>
<path d="M22.7853 16.0586V20.4156H28.1751L27.3216 26.2846H22.7853V39.8067C21.8758 39.9328 20.9453 39.9986 20.0008 39.9986C18.9105 39.9986 17.8398 39.9118 16.7972 39.7436V26.2846H11.8264V20.4156H16.7972V15.0847C16.7972 11.7774 19.478 9.09509 22.7867 9.09509V9.0979C22.7965 9.0979 22.8049 9.09509 22.8148 9.09509H28.1765V14.1709H24.673C23.6318 14.1709 22.7867 15.016 22.7867 16.0572L22.7853 16.0586Z" fill="white"/>
</svg>
