<svg width="40" height="40" viewBox="0 0 40 40" fill="none" xmlns="http://www.w3.org/2000/svg">
<path d="M20.0455 0H19.9545C8.93391 0 0 8.93391 0 19.9545V20.0455C0 31.0661 8.93391 40 19.9545 40H20.0455C31.0661 40 40 31.0661 40 20.0455V19.9545C40 8.93391 31.0661 0 20.0455 0Z" fill="black"/>
<path d="M30.1412 15.8862V19.6629C29.4811 19.5985 28.6235 19.4485 27.6747 19.101C26.4359 18.6469 25.5138 18.0261 24.9098 17.5454V25.1788L24.8944 25.155C24.9042 25.3064 24.9098 25.4605 24.9098 25.6161C24.9098 29.4068 21.8253 32.4927 18.0331 32.4927C14.241 32.4927 11.1565 29.4068 11.1565 25.6161C11.1565 21.8253 14.241 18.738 18.0331 18.738C18.4045 18.738 18.7689 18.7675 19.1248 18.8249V22.547C18.7829 22.4251 18.4157 22.3592 18.0331 22.3592C16.2379 22.3592 14.7763 23.8195 14.7763 25.6161C14.7763 27.4127 16.2379 28.8729 18.0331 28.8729C19.8283 28.8729 21.29 27.4113 21.29 25.6161C21.29 25.5488 21.2886 25.4815 21.2844 25.4143V10.5805H25.0583C25.0723 10.9 25.085 11.2223 25.099 11.5419C25.1242 12.1711 25.3484 12.7751 25.7394 13.2698C26.1977 13.8514 26.8745 14.5268 27.8247 15.0664C28.7146 15.5709 29.5498 15.7867 30.1412 15.889V15.8862Z" fill="#FF004F"/>
<path d="M28.8436 12.82V16.5967C28.1835 16.5323 27.3259 16.3823 26.3771 16.0348C25.1383 15.5807 24.2162 14.9599 23.6122 14.4792V22.1126L23.5967 22.0888C23.6066 22.2401 23.6122 22.3943 23.6122 22.5498C23.6122 26.3406 20.5277 29.4265 16.7355 29.4265C12.9434 29.4265 9.85889 26.3406 9.85889 22.5498C9.85889 18.7591 12.9434 15.6718 16.7355 15.6718C17.1069 15.6718 17.4713 15.7012 17.8272 15.7587V19.4808C17.4853 19.3589 17.1181 19.293 16.7355 19.293C14.9403 19.293 13.4787 20.7533 13.4787 22.5498C13.4787 24.3464 14.9403 25.8067 16.7355 25.8067C18.5307 25.8067 19.9924 24.345 19.9924 22.5498C19.9924 22.4826 19.991 22.4153 19.9868 22.348V7.51147H23.7607C23.7747 7.83099 23.7873 8.15331 23.8014 8.47283C23.8266 9.10206 24.0508 9.70606 24.4418 10.2008C24.9001 10.7823 25.5769 11.4578 26.5271 11.9973C27.417 12.5004 28.2522 12.7177 28.8436 12.82Z" fill="#00F7EF"/>
<path d="M29.6688 14.4708V18.2475C29.0087 18.1831 28.1511 18.0331 27.2023 17.6856C25.9635 17.2315 25.0414 16.6107 24.4374 16.13V23.7634L24.422 23.7396C24.4318 23.891 24.4374 24.0451 24.4374 24.2007C24.4374 27.9914 21.3529 31.0773 17.5607 31.0773C13.7686 31.0773 10.6841 27.9914 10.6841 24.2007C10.6841 20.4099 13.7686 17.3226 17.5607 17.3226C17.9321 17.3226 18.2965 17.352 18.6524 17.4095V21.1316C18.3105 21.0097 17.9433 20.9438 17.5607 20.9438C15.7655 20.9438 14.3039 22.4041 14.3039 24.2007C14.3039 25.9972 15.7655 27.4575 17.5607 27.4575C19.3559 27.4575 20.8176 25.9958 20.8176 24.2007C20.8176 24.1334 20.8162 24.0661 20.812 23.9989V9.1651H24.5859C24.5999 9.48462 24.6125 9.80694 24.6266 10.1265C24.6518 10.7557 24.876 11.3597 25.267 11.8544C25.7252 12.436 26.4021 13.1114 27.3523 13.651C28.2421 14.1541 29.0774 14.3713 29.6688 14.4736V14.4708Z" fill="white"/>
</svg>
